<?xml version="1.0" encoding="UTF-8"?>
<svg width="128" height="128" viewBox="0 0 128 128" xmlns="http://www.w3.org/2000/svg" shape-rendering="geometricPrecision">
  <title>Burned Tile</title>
  <desc>Charred block with ash, ember glow, and jagged white cracks.</desc>

  <rect width="128" height="128" rx="10" fill="#4E5358"/>
  <path d="M10 10 H118 V118 H10 Z" fill="none" stroke="#202328" stroke-width="4"/>
  <path d="M10 10 H118 V30 H10 Z" fill="#777D83" opacity="0.32"/>
  <path d="M10 98 H118 V118 H10 Z" fill="#2C3035" opacity="0.55"/>

  <g opacity="0.3">
    <path d="M17 25 L34 18 L48 31 L66 18 L82 29 L103 20 L116 32 V118 H10 V40 Z" fill="#2E3236"/>
    <path d="M12 84 C28 72 44 72 60 84 C76 96 94 94 116 77" fill="none" stroke="#6B7076" stroke-width="8" stroke-linecap="round"/>
  </g>

  <g fill="#F0782A" opacity="0.65">
    <circle cx="29" cy="96" r="4"/>
    <circle cx="85" cy="100" r="3"/>
    <circle cx="103" cy="54" r="3"/>
    <circle cx="45" cy="43" r="2.5"/>
  </g>

  <g clip-path="url(#innerClip)" fill="none" stroke-linecap="round" stroke-linejoin="round">
    <path d="M16 20 L35 36 L49 54 L64 67 L82 84 L108 105" stroke="#FFFFFF" stroke-width="4"/>
    <path d="M49 54 L36 60 L22 76" stroke="#FFFFFF" stroke-width="3.5"/>
    <path d="M64 67 L56 49 L54 31" stroke="#FFFFFF" stroke-width="3.5"/>
    <path d="M82 84 L70 101 L60 117" stroke="#FFFFFF" stroke-width="3.5"/>
    <path d="M88 34 L75 46 L64 67" stroke="#FFFFFF" stroke-width="3.5"/>
    <path d="M102 55 L88 64 L74 71" stroke="#FFFFFF" stroke-width="3" opacity="0.9"/>
    <path d="M24 104 L42 96 L58 91 L77 82" stroke="#FFFFFF" stroke-width="3" opacity="0.9"/>
    <path d="M34 14 L30 30 L28 45" stroke="#FFFFFF" stroke-width="3" opacity="0.85"/>
    <path d="M112 80 L101 87 L91 94" stroke="#FFFFFF" stroke-width="3" opacity="0.85"/>
  </g>

  <g stroke="#101215" stroke-width="2" stroke-linecap="round" opacity="0.35">
    <path d="M18 21 L35 36 L49 54 L64 67 L82 84 L108 105"/>
    <path d="M49 54 L36 60 L22 76"/>
    <path d="M64 67 L56 49 L54 31"/>
  </g>

  <defs>
    <clipPath id="innerClip">
      <rect x="10" y="10" width="108" height="108" rx="6"/>
    </clipPath>
  </defs>
</svg>
