<?xml version="1.0" encoding="UTF-8"?>
<svg width="128" height="128" viewBox="0 0 128 128" xmlns="http://www.w3.org/2000/svg" shape-rendering="geometricPrecision">
  <title>Sand Element Tile</title>
  <desc>Yellow sand elemental block with dune texture and a clear white sand swirl symbol.</desc>

  <rect width="128" height="128" rx="10" fill="#DDBF45"/>
  <path d="M10 10 H118 V118 H10 Z" fill="none" stroke="#72581A" stroke-width="4"/>
  <path d="M10 10 H118 V28 H10 Z" fill="#F3DB72" opacity="0.45"/>
  <path d="M10 102 H118 V118 H10 Z" fill="#B58A26" opacity="0.48"/>

  <g fill="#8F6B1D" opacity="0.32">
    <circle cx="23" cy="31" r="3"/>
    <circle cx="43" cy="21" r="2"/>
    <circle cx="106" cy="43" r="3"/>
    <circle cx="22" cy="95" r="2.5"/>
    <circle cx="94" cy="105" r="3"/>
    <circle cx="112" cy="84" r="2"/>
    <circle cx="54" cy="112" r="2"/>
  </g>

  <g fill="none" stroke-linecap="round" stroke-width="4" opacity="0.36">
    <path d="M8 49 C25 38 45 35 65 42 C84 49 101 46 120 34" stroke="#FFF0A3"/>
    <path d="M4 85 C24 74 45 72 64 80 C83 88 104 86 124 74" stroke="#8F6B1D"/>
    <path d="M17 107 C34 99 52 98 70 104 C87 110 104 109 121 101" stroke="#FFF0A3" opacity="0.6"/>
  </g>

  <g transform="translate(64 65)">
    <path d="M-33 -19 C-21 -34 2 -37 19 -26 C35 -16 37 4 25 15 C14 25 -6 27 -20 19" fill="none" stroke="#FFFFFF" stroke-width="12" stroke-linecap="round"/>
    <path d="M-23 20 C-9 36 17 36 33 19" fill="none" stroke="#FFFFFF" stroke-width="12" stroke-linecap="round"/>
    <path d="M18 -25 C8 -17 4 -7 9 4 C13 14 24 18 35 16" fill="none" stroke="#FFF0A3" stroke-width="5" stroke-linecap="round" opacity="0.95"/>
    <circle cx="-33" cy="-19" r="7" fill="#FFFFFF"/>
    <circle cx="33" cy="19" r="7" fill="#FFFFFF"/>
  </g>
</svg>
