<?xml version="1.0" encoding="UTF-8"?>
<svg width="128" height="128" viewBox="0 0 128 128" xmlns="http://www.w3.org/2000/svg" shape-rendering="geometricPrecision">
  <title>Fire Element Tile</title>
  <desc>Red elemental block with ember texture and a clear white flame symbol.</desc>

  <rect width="128" height="128" rx="10" fill="#C83A2F"/>
  <path d="M10 10 H118 V118 H10 Z" fill="none" stroke="#6F1917" stroke-width="4"/>
  <path d="M10 10 H118 V26 H10 Z" fill="#E65835" opacity="0.5"/>
  <path d="M10 104 H118 V118 H10 Z" fill="#8D231F" opacity="0.5"/>

  <g opacity="0.38" fill="#FFB347">
    <circle cx="22" cy="28" r="3"/>
    <circle cx="101" cy="35" r="4"/>
    <circle cx="35" cy="101" r="4"/>
    <circle cx="92" cy="94" r="3"/>
    <circle cx="110" cy="75" r="2.5"/>
    <circle cx="18" cy="75" r="2.5"/>
  </g>

  <g stroke="#7A1E1E" stroke-width="3" stroke-linecap="round" opacity="0.35">
    <path d="M20 52 C33 43 43 43 56 52"/>
    <path d="M74 32 C86 24 97 24 108 31"/>
    <path d="M24 115 C38 104 51 104 65 114"/>
    <path d="M80 115 C93 103 105 103 117 113"/>
  </g>

  <g transform="translate(64 65)">
    <path d="M0 -42 C17 -24 19 -11 10 3 C23 -7 30 7 30 19 C30 37 17 49 0 49 C-19 49 -32 37 -32 19 C-32 4 -22 -11 -12 -20 C-13 -8 -7 0 -2 5 C5 -8 -5 -21 0 -42 Z" fill="#FFFFFF"/>
    <path d="M2 -18 C11 -7 11 1 5 9 C14 5 19 12 19 21 C19 32 11 40 0 40 C-12 40 -20 32 -20 21 C-20 13 -15 5 -8 0 C-9 9 -5 14 0 17 C5 7 -1 -3 2 -18 Z" fill="#FFD15A" opacity="0.85"/>
  </g>
</svg>
